<mxfile host="Electron" modified="2024-12-01T14:13:26.351Z" agent="Mozilla/5.0 (Windows NT 10.0; Win64; x64) AppleWebKit/537.36 (KHTML, like Gecko) draw.io/21.6.8 Chrome/114.0.5735.289 Electron/25.5.0 Safari/537.36" etag="wJShUVXxDREe9ox_l_Mv" version="21.6.8" type="device">
  <diagram name="第 1 页" id="LuxU3AJf1o44I1dn9z0j">
    <mxGraphModel dx="555" dy="973" grid="1" gridSize="10" guides="1" tooltips="1" connect="1" arrows="1" fold="1" page="1" pageScale="1" pageWidth="827" pageHeight="1169" math="0" shadow="0">
      <root>
        <mxCell id="0" />
        <mxCell id="1" parent="0" />
        <mxCell id="jLJ-TLpbeylDNl4kEl7p-15" style="edgeStyle=orthogonalEdgeStyle;rounded=0;orthogonalLoop=1;jettySize=auto;html=1;exitX=1;exitY=0.5;exitDx=0;exitDy=0;entryX=0;entryY=0.5;entryDx=0;entryDy=0;fontSize=18;fontFamily=Garamond;" edge="1" parent="1" source="jLJ-TLpbeylDNl4kEl7p-1" target="jLJ-TLpbeylDNl4kEl7p-5">
          <mxGeometry relative="1" as="geometry" />
        </mxCell>
        <mxCell id="jLJ-TLpbeylDNl4kEl7p-1" value="State" style="rounded=1;whiteSpace=wrap;html=1;fontSize=18;fontFamily=Garamond;" vertex="1" parent="1">
          <mxGeometry x="90" y="340" width="120" height="60" as="geometry" />
        </mxCell>
        <mxCell id="jLJ-TLpbeylDNl4kEl7p-10" style="edgeStyle=orthogonalEdgeStyle;rounded=0;orthogonalLoop=1;jettySize=auto;html=1;exitX=0.5;exitY=0;exitDx=0;exitDy=0;entryX=0.5;entryY=1;entryDx=0;entryDy=0;fontSize=18;fontFamily=Garamond;" edge="1" parent="1" source="jLJ-TLpbeylDNl4kEl7p-2" target="jLJ-TLpbeylDNl4kEl7p-1">
          <mxGeometry relative="1" as="geometry" />
        </mxCell>
        <mxCell id="jLJ-TLpbeylDNl4kEl7p-2" value="Environment" style="rounded=1;whiteSpace=wrap;html=1;fontSize=18;fontFamily=Garamond;" vertex="1" parent="1">
          <mxGeometry x="293.5" y="470" width="120" height="60" as="geometry" />
        </mxCell>
        <mxCell id="jLJ-TLpbeylDNl4kEl7p-11" style="edgeStyle=orthogonalEdgeStyle;rounded=0;orthogonalLoop=1;jettySize=auto;html=1;exitX=0.5;exitY=0;exitDx=0;exitDy=0;entryX=0.5;entryY=1;entryDx=0;entryDy=0;startArrow=classic;startFill=1;fontSize=18;fontFamily=Garamond;" edge="1" parent="1" source="jLJ-TLpbeylDNl4kEl7p-3" target="jLJ-TLpbeylDNl4kEl7p-6">
          <mxGeometry relative="1" as="geometry" />
        </mxCell>
        <mxCell id="jLJ-TLpbeylDNl4kEl7p-3" value="Goal" style="rounded=1;whiteSpace=wrap;html=1;fontSize=18;fontFamily=Garamond;" vertex="1" parent="1">
          <mxGeometry x="500" y="470" width="120" height="60" as="geometry" />
        </mxCell>
        <mxCell id="jLJ-TLpbeylDNl4kEl7p-9" style="edgeStyle=orthogonalEdgeStyle;rounded=0;orthogonalLoop=1;jettySize=auto;html=1;exitX=0.5;exitY=0;exitDx=0;exitDy=0;fontSize=18;fontFamily=Garamond;" edge="1" parent="1" source="jLJ-TLpbeylDNl4kEl7p-4" target="jLJ-TLpbeylDNl4kEl7p-1">
          <mxGeometry relative="1" as="geometry" />
        </mxCell>
        <mxCell id="jLJ-TLpbeylDNl4kEl7p-4" value="Agent" style="rounded=1;whiteSpace=wrap;html=1;fontSize=18;fontFamily=Garamond;" vertex="1" parent="1">
          <mxGeometry x="90" y="470" width="120" height="60" as="geometry" />
        </mxCell>
        <mxCell id="jLJ-TLpbeylDNl4kEl7p-13" style="edgeStyle=orthogonalEdgeStyle;rounded=0;orthogonalLoop=1;jettySize=auto;html=1;exitX=0.5;exitY=1;exitDx=0;exitDy=0;entryX=0.75;entryY=1;entryDx=0;entryDy=0;fontSize=18;fontFamily=Garamond;" edge="1" parent="1" source="jLJ-TLpbeylDNl4kEl7p-5" target="jLJ-TLpbeylDNl4kEl7p-1">
          <mxGeometry relative="1" as="geometry" />
        </mxCell>
        <mxCell id="jLJ-TLpbeylDNl4kEl7p-14" style="edgeStyle=orthogonalEdgeStyle;rounded=0;orthogonalLoop=1;jettySize=auto;html=1;exitX=0.5;exitY=1;exitDx=0;exitDy=0;entryX=0.25;entryY=1;entryDx=0;entryDy=0;fontSize=18;fontFamily=Garamond;" edge="1" parent="1" source="jLJ-TLpbeylDNl4kEl7p-5" target="jLJ-TLpbeylDNl4kEl7p-6">
          <mxGeometry relative="1" as="geometry" />
        </mxCell>
        <mxCell id="jLJ-TLpbeylDNl4kEl7p-5" value="Action" style="rounded=1;whiteSpace=wrap;html=1;fontSize=18;fontFamily=Garamond;" vertex="1" parent="1">
          <mxGeometry x="293.5" y="340" width="120" height="60" as="geometry" />
        </mxCell>
        <mxCell id="jLJ-TLpbeylDNl4kEl7p-12" style="edgeStyle=orthogonalEdgeStyle;rounded=0;orthogonalLoop=1;jettySize=auto;html=1;exitX=0.5;exitY=0;exitDx=0;exitDy=0;startArrow=classic;startFill=1;fontSize=18;fontFamily=Garamond;" edge="1" parent="1" source="jLJ-TLpbeylDNl4kEl7p-6" target="jLJ-TLpbeylDNl4kEl7p-8">
          <mxGeometry relative="1" as="geometry" />
        </mxCell>
        <mxCell id="jLJ-TLpbeylDNl4kEl7p-6" value="Reward" style="rounded=1;whiteSpace=wrap;html=1;fontSize=18;fontFamily=Garamond;" vertex="1" parent="1">
          <mxGeometry x="500" y="340" width="120" height="60" as="geometry" />
        </mxCell>
        <mxCell id="jLJ-TLpbeylDNl4kEl7p-16" style="edgeStyle=orthogonalEdgeStyle;rounded=0;orthogonalLoop=1;jettySize=auto;html=1;exitX=0.5;exitY=1;exitDx=0;exitDy=0;fontSize=18;fontFamily=Garamond;" edge="1" parent="1" source="jLJ-TLpbeylDNl4kEl7p-7">
          <mxGeometry relative="1" as="geometry">
            <mxPoint x="249.70588235294122" y="370" as="targetPoint" />
          </mxGeometry>
        </mxCell>
        <mxCell id="jLJ-TLpbeylDNl4kEl7p-7" value="Policy" style="rounded=1;whiteSpace=wrap;html=1;fontSize=18;fontFamily=Garamond;" vertex="1" parent="1">
          <mxGeometry x="190" y="220" width="120" height="60" as="geometry" />
        </mxCell>
        <mxCell id="jLJ-TLpbeylDNl4kEl7p-8" value="Value" style="rounded=1;whiteSpace=wrap;html=1;fontSize=18;fontFamily=Garamond;" vertex="1" parent="1">
          <mxGeometry x="500" y="220" width="120" height="60" as="geometry" />
        </mxCell>
      </root>
    </mxGraphModel>
  </diagram>
</mxfile>
